<svg xmlns="http://www.w3.org/2000/svg" viewBox="0 0 32 32" width="32" height="32" fill="#444444">
  <path
     style="opacity:0.25;fill:#444444;fill-opacity:1;stroke:none"
     d="m 20,10 c -5.522847,0 -10,4.477152 -10,10 0,5.522847 4.477153,10 10,10 5.522847,0 10,-4.477153 10,-10 0,-5.522848 -4.477153,-10 -10,-10 z m 0,4 c 3.313708,0 6,2.686291 6,6 0,3.313708 -2.686292,6 -6,6 -3.313708,0 -6,-2.686292 -6,-6 0,-3.313709 2.686292,-6 6,-6 z" />
  <path style="fill:#444444;fill-opacity:1;stroke:none" d="m 20,10 0,4 c 3.313708,0 6,2.686291 6,6 l 4,0 C 30,14.477152 25.522847,10 20,10 z">
    <animateTransform attributeName="transform" type="rotate" from="0 20 20" to="360 20 20" dur="0.8s" repeatCount="indefinite" />
  </path>
</svg>
