<?xml version="1.0" encoding="UTF-8" standalone="no"?>
<svg
   xmlns:dc="http://purl.org/dc/elements/1.1/"
   xmlns:cc="http://creativecommons.org/ns#"
   xmlns:rdf="http://www.w3.org/1999/02/22-rdf-syntax-ns#"
   xmlns:svg="http://www.w3.org/2000/svg"
   xmlns="http://www.w3.org/2000/svg"
   xmlns:sodipodi="http://sodipodi.sourceforge.net/DTD/sodipodi-0.dtd"
   xmlns:inkscape="http://www.inkscape.org/namespaces/inkscape"
   viewBox="0 0 32 32"
   width="32"
   height="32"
   fill="#444444"
   id="svg5557"
   version="1.1"
   inkscape:version="0.48.2 r9819"
   sodipodi:docname="loading-spin-dark.svg">
  <metadata
     id="metadata5569">
    <rdf:RDF>
      <cc:Work
         rdf:about="">
        <dc:format>image/svg+xml</dc:format>
        <dc:type
           rdf:resource="http://purl.org/dc/dcmitype/StillImage" />
        <dc:title></dc:title>
      </cc:Work>
    </rdf:RDF>
  </metadata>
  <defs
     id="defs5567" />
  <sodipodi:namedview
     pagecolor="#ffffff"
     bordercolor="#666666"
     borderopacity="1"
     objecttolerance="10"
     gridtolerance="10"
     guidetolerance="10"
     inkscape:pageopacity="0"
     inkscape:pageshadow="2"
     inkscape:window-width="1025"
     inkscape:window-height="723"
     id="namedview5565"
     showgrid="false"
     inkscape:zoom="8"
     inkscape:cx="32.063866"
     inkscape:cy="16"
     inkscape:window-x="0"
     inkscape:window-y="0"
     inkscape:window-maximized="0"
     inkscape:current-layer="svg5557">
    <inkscape:grid
       type="xygrid"
       id="grid5571"
       empspacing="5"
       visible="true"
       enabled="true"
       snapvisiblegridlinesonly="true" />
  </sodipodi:namedview>
  <path
     style="opacity:0.25000000000000000;fill:#ffffff;fill-opacity:1;stroke:none"
     d="m 20,10 c -5.522847,0 -10,4.477152 -10,10 0,5.522847 4.477153,10 10,10 5.522847,0 10,-4.477153 10,-10 0,-5.522848 -4.477153,-10 -10,-10 z m 0,4 c 3.313708,0 6,2.686291 6,6 0,3.313708 -2.686292,6 -6,6 -3.313708,0 -6,-2.686292 -6,-6 0,-3.313709 2.686292,-6 6,-6 z"
     id="path5559" />
  <path
     style="fill:#ffffff;fill-opacity:1;stroke:none"
     d="m 20,10 0,4 c 3.313708,0 6,2.686291 6,6 l 4,0 C 30,14.477152 25.522847,10 20,10 z"
     id="path5561">
    <animateTransform
       attributeName="transform"
       type="rotate"
       from="0 20 20"
       to="360 20 20"
       dur="0.8s"
       repeatCount="indefinite"
       id="animateTransform5563" />
  </path>
</svg>
