<?xml version="1.0" encoding="UTF-8" standalone="no"?>
<!-- Created with Inkscape (http://www.inkscape.org/) -->

<svg
   xmlns:dc="http://purl.org/dc/elements/1.1/"
   xmlns:cc="http://creativecommons.org/ns#"
   xmlns:rdf="http://www.w3.org/1999/02/22-rdf-syntax-ns#"
   xmlns:svg="http://www.w3.org/2000/svg"
   xmlns="http://www.w3.org/2000/svg"
   version="1.1"
   width="50"
   height="50"
   viewBox="0 0 50 50"
   id="Layer_1"
   xml:space="preserve"><metadata
   id="metadata9"><rdf:RDF><cc:Work
       rdf:about=""><dc:format>image/svg+xml</dc:format><dc:type
         rdf:resource="http://purl.org/dc/dcmitype/StillImage" /><dc:title></dc:title></cc:Work></rdf:RDF></metadata><defs
   id="defs7" />
<path
   d="M 37.060436,29.030904 C 41.251512,24.030539 40.592183,16.551545 35.59091,12.361554 30.589724,8.1725583 23.111726,8.831799 18.920563,13.831168 c -3.730382,4.452793 -3.60683,10.864714 -0.0074,15.175276 -0.448709,0.136933 -0.865434,0.397535 -1.189792,0.78351 l -6.101096,7.281912 c -0.887341,1.060018 -0.748415,2.635907 0.310432,3.521343 1.05911,0.888424 2.634999,0.749498 3.521343,-0.310432 l 6.103089,-7.282087 c 0.322454,-0.384804 0.506041,-0.841691 0.561362,-1.307348 4.875986,2.791591 11.208637,1.791615 14.941919,-2.662438 z m -14.7438,-0.829451 C 18.5835,25.0732 18.091375,19.49085 21.219628,15.757714 c 3.128429,-3.731143 8.710779,-4.223268 12.443739,-1.097007 3.733136,3.128253 4.225261,8.710603 1.097008,12.443739 -3.128254,3.733135 -8.710604,4.225261 -12.443739,1.097007 z"
   id="path3" />
</svg>