<?xml version="1.0" encoding="utf-8"?>
<!-- Generator: Adobe Illustrator 15.0.0, SVG Export Plug-In . SVG Version: 6.00 Build 0)  -->
<!DOCTYPE svg PUBLIC "-//W3C//DTD SVG 1.1//EN" "http://www.w3.org/Graphics/SVG/1.1/DTD/svg11.dtd">
<svg version="1.1" id="Layer_1" xmlns="http://www.w3.org/2000/svg" xmlns:xlink="http://www.w3.org/1999/xlink" x="0px" y="0px"
	 width="26px" height="26px" viewBox="0 0 26 26" enable-background="new 0 0 26 26" xml:space="preserve">
<path d="M14.88,10.595h2.86c0.118,0,0.215-0.096,0.215-0.215V7.52c0-0.118-0.097-0.214-0.215-0.214h-2.86
	c-0.118,0-0.214,0.096-0.214,0.214v1.075H9.688c-0.196,0-0.355,0.159-0.355,0.355v3.066H8.258c-0.118,0-0.214,0.097-0.214,0.215
	v2.859c0,0.119,0.096,0.215,0.214,0.215h1.075v3.066c0,0.196,0.159,0.356,0.355,0.356h4.978v1.252c0,0.118,0.096,0.214,0.214,0.214
	h2.86c0.118,0,0.215-0.096,0.215-0.214v-2.86c0-0.118-0.097-0.215-0.215-0.215h-2.86c-0.118,0-0.214,0.097-0.214,0.215v0.896h-4.622
	v-2.711h1.074c0.118,0,0.215-0.096,0.215-0.215v-1.074h3.333v1.074c0,0.119,0.096,0.215,0.214,0.215h2.86
	c0.118,0,0.215-0.096,0.215-0.215v-2.859c0-0.118-0.097-0.215-0.215-0.215h-2.86c-0.118,0-0.214,0.097-0.214,0.215v1.074h-3.333
	v-1.074c0-0.118-0.097-0.215-0.215-0.215h-1.074V9.306h4.622v1.074C14.666,10.499,14.762,10.595,14.88,10.595z"/>
</svg>
