<?xml version="1.0" encoding="UTF-8" standalone="no"?>
<!-- Created with Inkscape (http://www.inkscape.org/) -->

<svg
   xmlns:dc="http://purl.org/dc/elements/1.1/"
   xmlns:cc="http://creativecommons.org/ns#"
   xmlns:rdf="http://www.w3.org/1999/02/22-rdf-syntax-ns#"
   xmlns:svg="http://www.w3.org/2000/svg"
   xmlns="http://www.w3.org/2000/svg"
   xmlns:sodipodi="http://sodipodi.sourceforge.net/DTD/sodipodi-0.dtd"
   xmlns:inkscape="http://www.inkscape.org/namespaces/inkscape"
   width="600"
   height="120"
   id="svg22906"
   version="1.1"
   inkscape:version="0.48.2 r9819"
   sodipodi:docname="sprite.svg"
   inkscape:export-filename="./sprite@2x.png"
   inkscape:export-xdpi="180"
   inkscape:export-ydpi="180">
  <defs
     id="defs22908" />
  <sodipodi:namedview
     id="base"
     pagecolor="#ffffff"
     bordercolor="#666666"
     borderopacity="1.0"
     inkscape:pageopacity="0.0"
     inkscape:pageshadow="2"
     inkscape:zoom="1"
     inkscape:cx="587.81464"
     inkscape:cy="78.966271"
     inkscape:document-units="px"
     inkscape:current-layer="layer1"
     showgrid="false"
     inkscape:window-width="1280"
     inkscape:window-height="752"
     inkscape:window-x="0"
     inkscape:window-y="0"
     inkscape:window-maximized="1">
    <inkscape:grid
       type="xygrid"
       id="grid22914"
       empspacing="5"
       visible="true"
       enabled="true"
       snapvisiblegridlinesonly="true"
       color="#000000"
       opacity="0.0627451"
       empcolor="#000000"
       empopacity="0.1254902" />
  </sodipodi:namedview>
  <metadata
     id="metadata22911">
    <rdf:RDF>
      <cc:Work
         rdf:about="">
        <dc:format>image/svg+xml</dc:format>
        <dc:type
           rdf:resource="http://purl.org/dc/dcmitype/StillImage" />
        <dc:title></dc:title>
      </cc:Work>
    </rdf:RDF>
  </metadata>
  <g
     inkscape:groupmode="layer"
     id="layer2"
     inkscape:label="underlay"
     style="display:none"
     transform="translate(0,40)">
    <rect
       style="color:#000000;fill:#cccccc;fill-opacity:1;fill-rule:nonzero;stroke:none;stroke-width:5;marker:none;visibility:visible;display:inline;overflow:visible;enable-background:accumulate"
       id="rect36339"
       width="600"
       height="120"
       x="0"
       y="-40" />
  </g>
  <g
     inkscape:label="sprite"
     inkscape:groupmode="layer"
     id="layer1"
     transform="translate(0,-932.36218)">
    <path
       transform="translate(0,972.36218)"
       style="color:#000000;fill:#ffffff;fill-opacity:1;fill-rule:nonzero;stroke:none;stroke-width:1;marker:none;visibility:visible;display:inline;overflow:visible;enable-background:accumulate"
       d="m 204,23 0,3 12,0 0,-3 -12,0 z m 3,4 c -1.108,0 -2,0.892 -2,2 l 0,7 c 0,1.108 0.892,2 2,2 l 6,0 c 1.108,0 2,-0.892 2,-2 l 0,-7 c 0,-1.108 -0.892,-2 -2,-2 l -6,0 z m 0,3 2,0 0,5 -2,0 0,-5 z m 4,0 2,0 0,5 -2,0 0,-5 z"
       id="rect7581-9"
       inkscape:connector-curvature="0" />
    <path
       style="color:#000000;fill:#ffffff;fill-opacity:1;fill-rule:nonzero;stroke:none;stroke-width:1;marker:none;visibility:visible;display:inline;overflow:visible;enable-background:accumulate"
       d="m 267,26 c -1.108,0 -2,0.892 -2,2 l 0,5 -12,12 -5,0 c -1.108,0 -2,0.892 -2,2 l 0,5 c 0,1.108 0.892,2 2,2 l 5,0 c 1.108,0 2,-0.892 2,-2 l 0,-5 12,-12 5,0 c 1.108,0 2,-0.892 2,-2 l 0,-5 c 0,-1.108 -0.892,-2 -2,-2 l -5,0 z m 1,3 3,0 0,3 -3,0 0,-3 z m -19,19 3,0 0,3 -3,0 0,-3 z"
       transform="translate(0,992.36218)"
       id="rect8263-1"
       inkscape:connector-curvature="0" />
    <path
       transform="translate(0,972.36218)"
       sodipodi:nodetypes="ccccccc"
       inkscape:connector-curvature="0"
       id="path8281-7"
       d="m 386.81583,52.113971 -10,9.999999 -4,-3.999999 -3,2.999999 7,7 13,-12.999999 z"
       style="font-size:medium;font-style:normal;font-variant:normal;font-weight:normal;font-stretch:normal;text-indent:0;text-align:start;text-decoration:none;line-height:normal;letter-spacing:normal;word-spacing:normal;text-transform:none;direction:ltr;block-progression:tb;writing-mode:lr-tb;text-anchor:start;baseline-shift:baseline;color:#000000;fill:#ffffff;fill-opacity:1;fill-rule:nonzero;stroke:none;stroke-width:1;marker:none;visibility:visible;display:inline;overflow:visible;enable-background:accumulate;font-family:Sans;-inkscape-font-specification:Sans" />
    <path
       style="color:#000000;fill:#ffffff;fill-opacity:1;fill-rule:nonzero;stroke:none;stroke-width:1;marker:none;visibility:visible;display:inline;overflow:visible;enable-background:accumulate"
       d="m 300.34375,29 c -5,0 -8,4.0152 -8,7.5 0,2.5152 0.5,4.500002 3,7.5 l 5,6 5,-6 c 2.26981,-3.177797 3,-4.9848 3,-7.5 0,-3.4848 -3,-7.5 -8,-7.5 z M 300.5,34 c 1.38071,0 2.5,1.119288 2.5,2.5 0,1.380712 -1.11929,2.5 -2.5,2.5 -1.38071,0 -2.5,-1.119288 -2.5,-2.5 0,-1.380712 1.11929,-2.5 2.5,-2.5 z"
       transform="translate(0,992.36218)"
       id="path14779"
       inkscape:connector-curvature="0" />
    <path
       transform="translate(0,972.36218)"
       style="color:#000000;fill:#ffffff;fill-opacity:1;fill-rule:nonzero;stroke:none;stroke-width:5;marker:none;visibility:visible;display:inline;overflow:visible;enable-background:accumulate"
       d="m 329,47 c -1.108,0 -2,0.892 -2,2 l 0,5 c 0,1.108 0.892,2 2,2 l 1,0 0,7 -1,0 c -1.108,0 -2,0.892 -2,2 l 0,5 c 0,1.108 0.892,2 2,2 l 5,0 c 1.108,0 2,-0.892 2,-2 l 0,-1 8,0 0,1 c 0,1.108 0.892,2 2,2 l 5,0 c 1.108,0 2,-0.892 2,-2 l 0,-5 c 0,-1.108 -0.892,-2 -2,-2 l -1,0 0,-7 1,0 c 1.108,0 2,-0.892 2,-2 l 0,-5 c 0,-1.108 -0.892,-2 -2,-2 l -5,0 c -1.108,0 -2,2 -2,2 l 0,1 -8,0 0,-1 c 0,-1.108 -0.892,-2 -2,-2 z m 1,3 3,0 0,3 -3,0 z m 17,0 3,0 0,3 -3,0 z m -11,3 8,0 0,1 c 0,0 1.21653,2.783474 2,2 l 1,0 0,7 -1,0 c -1.108,0 -2,0.892 -2,2 l 0,1 -8,0 0,-1 c 0,-1.108 -0.892,-2 -2,-2 l -1,0 0,-7 1,0 c 1.108,0 2,-0.892 2,-2 z m -6,13 3,0 0,3 -3,0 z m 17,0 3,0 0,3 -3,0 z"
       id="rect33134"
       inkscape:connector-curvature="0"
       sodipodi:nodetypes="ssssccssssssccssssssccssssssccsssccccccccccccssccssccssccssccccccccccc" />
    <g
       transform="translate(-178.9993,-70.63752)"
       id="g17130"
       style="color:#000000;fill:#ffffff;fill-opacity:1;fill-rule:nonzero;stroke:none;stroke-width:1;marker:none;visibility:visible;display:inline;overflow:visible;enable-background:accumulate">
      <g
         transform="translate(-144.06568,659.06812)"
         id="g17132"
         style="color:#000000;fill:#ffffff;fill-opacity:1;fill-rule:nonzero;stroke:none;stroke-width:1;marker:none;visibility:visible;display:inline;overflow:visible;enable-background:accumulate">
        <path
           style="font-size:medium;font-style:normal;font-variant:normal;font-weight:normal;font-stretch:normal;text-indent:0;text-align:start;text-decoration:none;line-height:normal;letter-spacing:normal;word-spacing:normal;text-transform:none;direction:ltr;block-progression:tb;writing-mode:lr-tb;text-anchor:start;baseline-shift:baseline;color:#000000;fill:#ffffff;fill-opacity:1;fill-rule:nonzero;stroke:none;stroke-width:1;marker:none;visibility:visible;display:inline;overflow:visible;enable-background:accumulate;font-family:Sans;-inkscape-font-specification:Sans"
           d="m 741.06503,436.93154 0,5 -5,0 0,4 5,0 0,5 4,0 0,-5 5,0 0,-4 -5,0 0,-5 z"
           id="path17134"
           inkscape:connector-curvature="0"
           sodipodi:nodetypes="ccccccccccccc" />
      </g>
      <g
         id="g17136"
         transform="matrix(0,1,-1,0,1037.9316,363.93463)"
         style="color:#000000;fill:#ffffff;fill-opacity:1;fill-rule:nonzero;stroke:none;stroke-width:1;marker:none;visibility:visible;display:inline;overflow:visible;enable-background:accumulate" />
    </g>
    <path
       transform="translate(0,972.36218)"
       style="color:#000000;fill:#ffffff;fill-opacity:1;fill-rule:nonzero;stroke:none;stroke-width:1;marker:none;visibility:visible;display:inline;overflow:visible;enable-background:accumulate"
       d="m 409.5,26.000004 c -0.277,0 -0.5,0.223 -0.5,0.5 l 0,2.50002 -2.5,0 c -0.277,0 -0.5,0.223 -0.5,0.5 l 0,1 c 0,0.277 0.223,0.5 0.5,0.5 l 2.5,0 0,2.5 c 0,0.277 0.223,0.5 0.5,0.5 l 1,0 c 0.277,0 0.5,-0.223 0.5,-0.5 l 0,-2.5 2.5,0 c 0.277,0 0.5,-0.223 0.5,-0.5 l 0,-1 c 0,-0.277 -0.223,-0.5 -0.5,-0.5 l -2.5,0 0,-2.50002 c 0,-0.277 -0.223,-0.5 -0.5,-0.5 z"
       id="path4922"
       sodipodi:nodetypes="ccccccccccccccccccccc"
       inkscape:connector-curvature="0" />
    <path
       transform="translate(0,972.36218)"
       inkscape:connector-curvature="0"
       id="path33192"
       d="m 204,-37 0,3 12,0 0,-3 -12,0 z m 3,4 c -1.108,0 -2,0.892 -2,2 l 0,7 c 0,1.108 0.892,2 2,2 l 6,0 c 1.108,0 2,-0.892 2,-2 l 0,-7 c 0,-1.108 -0.892,-2 -2,-2 l -6,0 z m 0,3 2,0 0,5 -2,0 0,-5 z m 4,0 2,0 0,5 -2,0 0,-5 z"
       style="color:#000000;fill:#444444;fill-opacity:1;fill-rule:nonzero;stroke:none;stroke-width:1;marker:none;visibility:visible;display:inline;overflow:visible;enable-background:accumulate" />
    <path
       transform="translate(0,972.36218)"
       inkscape:connector-curvature="0"
       id="path33194"
       d="m 267,-14 c -1.108,0 -2,0.892 -2,2 l 0,5 -12,12 -5,0 c -1.108,0 -2,0.892 -2,2 l 0,5 c 0,1.108 0.892,2 2,2 l 5,0 c 1.108,0 2,-0.892 2,-2 l 0,-5 12,-12 5,0 c 1.108,0 2,-0.892 2,-2 l 0,-5 c 0,-1.108 -0.892,-2 -2,-2 l -5,0 z m 1,3 3,0 0,3 -3,0 0,-3 z m -19,19 3,0 0,3 -3,0 0,-3 z"
       style="color:#000000;fill:#444444;fill-opacity:1;fill-rule:nonzero;stroke:none;stroke-width:1;marker:none;visibility:visible;display:inline;overflow:visible;enable-background:accumulate" />
    <path
       transform="translate(0,972.36218)"
       style="font-size:medium;font-style:normal;font-variant:normal;font-weight:normal;font-stretch:normal;text-indent:0;text-align:start;text-decoration:none;line-height:normal;letter-spacing:normal;word-spacing:normal;text-transform:none;direction:ltr;block-progression:tb;writing-mode:lr-tb;text-anchor:start;baseline-shift:baseline;color:#000000;fill:#444444;fill-opacity:1;fill-rule:nonzero;stroke:none;stroke-width:1;marker:none;visibility:visible;display:inline;overflow:visible;enable-background:accumulate;font-family:Sans;-inkscape-font-specification:Sans"
       d="m 386.81583,-7.886029 -10,9.999999 -4,-3.999999 -3,2.999999 7,7 13,-12.999999 z"
       id="path33196"
       inkscape:connector-curvature="0"
       sodipodi:nodetypes="ccccccc" />
    <path
       style="font-size:medium;font-style:normal;font-variant:normal;font-weight:normal;font-stretch:normal;text-indent:0;text-align:start;text-decoration:none;line-height:normal;letter-spacing:normal;word-spacing:normal;text-transform:none;direction:ltr;block-progression:tb;writing-mode:lr-tb;text-anchor:start;baseline-shift:baseline;color:#000000;fill:#444444;fill-opacity:1;fill-rule:nonzero;stroke:none;stroke-width:1;marker:none;visibility:visible;display:inline;overflow:visible;enable-background:accumulate;font-family:Sans;-inkscape-font-specification:Sans"
       d="m 375,936.36218 -7,7 -3,-3 -2,2 5,5 9,-9 z"
       id="path33198"
       inkscape:connector-curvature="0"
       sodipodi:nodetypes="ccccccc"
       inkscape:export-xdpi="180"
       inkscape:export-ydpi="180" />
    <path
       transform="translate(0,972.36218)"
       inkscape:connector-curvature="0"
       id="path33200"
       d="m 300.34375,-11 c -5,0 -8,4.0152 -8,7.5 0,2.5152 0.5,4.500002 3,7.5 l 5,6 5,-6 c 2.26981,-3.177797 3,-4.9848 3,-7.5 0,-3.4848 -3,-7.5 -8,-7.5 z M 300.5,-6 c 1.38071,0 2.5,1.119288 2.5,2.5 0,1.380712 -1.11929,2.5 -2.5,2.5 -1.38071,0 -2.5,-1.119288 -2.5,-2.5 0,-1.380712 1.11929,-2.5 2.5,-2.5 z"
       style="color:#000000;fill:#444444;fill-opacity:1;fill-rule:nonzero;stroke:none;stroke-width:1;marker:none;visibility:visible;display:inline;overflow:visible;enable-background:accumulate" />
    <path
       transform="translate(0,972.36218)"
       sodipodi:nodetypes="ssssccssssssccssssssccssssssccsssccccccccccccssccssccssccssccccccccccc"
       inkscape:connector-curvature="0"
       id="path33202"
       d="m 329,-13 c -1.108,0 -2,0.892 -2,2 l 0,5 c 0,1.108 0.892,2 2,2 l 1,0 0,7 -1,0 c -1.108,0 -2,0.892 -2,2 l 0,5 c 0,1.108 0.892,2 2,2 l 5,0 c 1.108,0 2,-0.892 2,-2 l 0,-1 8,0 0,1 c 0,1.108 0.892,2 2,2 l 5,0 c 1.108,0 2,-0.892 2,-2 l 0,-5 c 0,-1.108 -0.892,-2 -2,-2 l -1,0 0,-7 1,0 c 1.108,0 2,-0.892 2,-2 l 0,-5 c 0,-1.108 -0.892,-2 -2,-2 l -5,0 c -1.108,0 -2,2 -2,2 l 0,1 -8,0 0,-1 c 0,-1.108 -0.892,-2 -2,-2 z m 1,3 3,0 0,3 -3,0 z m 17,0 3,0 0,3 -3,0 z m -11,3 8,0 0,1 c 0,0 1.21653,2.783474 2,2 l 1,0 0,7 -1,0 c -1.108,0 -2,0.892 -2,2 l 0,1 -8,0 0,-1 c 0,-1.108 -0.892,-2 -2,-2 l -1,0 0,-7 1,0 c 1.108,0 2,-0.892 2,-2 z m -6,13 3,0 0,3 -3,0 z m 17,0 3,0 0,3 -3,0 z"
       style="color:#000000;fill:#444444;fill-opacity:1;fill-rule:nonzero;stroke:none;stroke-width:5;marker:none;visibility:visible;display:inline;overflow:visible;enable-background:accumulate" />
    <g
       style="color:#000000;fill:#444444;fill-opacity:1;fill-rule:nonzero;stroke:none;stroke-width:1;marker:none;visibility:visible;display:inline;overflow:visible;enable-background:accumulate"
       id="g33204"
       transform="translate(-178.9993,-130.63752)">
      <g
         style="color:#000000;fill:#444444;fill-opacity:1;fill-rule:nonzero;stroke:none;stroke-width:1;marker:none;visibility:visible;display:inline;overflow:visible;enable-background:accumulate"
         id="g33206"
         transform="translate(-144.06568,659.06812)">
        <path
           sodipodi:nodetypes="ccccccccccccc"
           inkscape:connector-curvature="0"
           id="path33208"
           d="m 741.06503,435.93154 0,6 -6,0 0,4 6,0 0,6 4,0 0,-6 6,0 0,-4 -6,0 0,-6 z"
           style="font-size:medium;font-style:normal;font-variant:normal;font-weight:normal;font-stretch:normal;text-indent:0;text-align:start;text-decoration:none;line-height:normal;letter-spacing:normal;word-spacing:normal;text-transform:none;direction:ltr;block-progression:tb;writing-mode:lr-tb;text-anchor:start;baseline-shift:baseline;color:#000000;fill:#444444;fill-opacity:1;fill-rule:nonzero;stroke:none;stroke-width:1;marker:none;visibility:visible;display:inline;overflow:visible;enable-background:accumulate;font-family:Sans;-inkscape-font-specification:Sans" />
      </g>
      <g
         style="color:#000000;fill:#444444;fill-opacity:1;fill-rule:nonzero;stroke:none;stroke-width:1;marker:none;visibility:visible;display:inline;overflow:visible;enable-background:accumulate"
         transform="matrix(0,1,-1,0,1037.9316,363.93463)"
         id="g33210" />
    </g>
    <path
       transform="translate(0,972.36218)"
       inkscape:connector-curvature="0"
       sodipodi:nodetypes="ccccccccccccccccccccc"
       id="path33212"
       d="m 409.5,-33.999996 c -0.277,0 -0.5,0.223 -0.5,0.5 l 0,2.50002 -2.5,0 c -0.277,0 -0.5,0.223 -0.5,0.5 l 0,1 c 0,0.277 0.223,0.5 0.5,0.5 l 2.5,0 0,2.5 c 0,0.277 0.223,0.5 0.5,0.5 l 1,0 c 0.277,0 0.5,-0.223 0.5,-0.5 l 0,-2.5 2.5,0 c 0.277,0 0.5,-0.223 0.5,-0.5 l 0,-1 c 0,-0.277 -0.223,-0.5 -0.5,-0.5 l -2.5,0 0,-2.50002 c 0,-0.277 -0.223,-0.5 -0.5,-0.5 z"
       style="color:#000000;fill:#444444;fill-opacity:1;fill-rule:nonzero;stroke:none;stroke-width:1;marker:none;visibility:visible;display:inline;overflow:visible;enable-background:accumulate" />
    <path
       style="color:#000000;fill:#ffffff;fill-opacity:1;fill-rule:nonzero;stroke:none;stroke-width:2;marker:none;visibility:visible;display:inline;overflow:visible;enable-background:accumulate"
       d="m 60,89.000024 c -4.986,0 -9,1.6249 -9,3.6562 0,2.0314 4.014,3.6875 9,3.6875 4.986,0 9,-1.6561 9,-3.6875 0,-2.0313 -4.014,-3.6562 -9,-3.6562 z m -8.6562,7.3437 c -0.2178,0.3163 -0.3438,0.6542 -0.3438,1 l 0,2 c 0,2.031296 4.014,3.656296 9,3.656296 4.986,0 9,-1.625 9,-3.656296 l 0,-2 c 0,-0.3458 -0.126,-0.6837 -0.3438,-1 -1.0655,1.5408 -4.5244,2.6563 -8.6562,2.6563 -4.1318,0 -7.5906,-1.1155 -8.6562,-2.6563 z m 0,6.999996 c -0.2178,0.3163 -0.3438,0.6542 -0.3438,1 l 0,2 c 0,2.0313 4.014,3.6563 9,3.6563 4.986,0 9,-1.625 9,-3.6563 l 0,-2 c 0,-0.3458 -0.126,-0.6837 -0.3438,-1 -1.0655,1.5408 -4.5244,2.6563 -8.6562,2.6563 -4.1318,0 -7.5906,-1.1155 -8.6562,-2.6563 z"
       id="path4782"
       inkscape:connector-curvature="0"
       transform="translate(0,932.36218)" />
    <path
       style="color:#000000;fill:#ffffff;fill-opacity:1;fill-rule:nonzero;stroke:none;stroke-width:2;marker:none;visibility:visible;display:inline;overflow:visible;enable-background:accumulate"
       d="m 50,64.000004 c -2.77,0 -5,0.892 -5,2 0.07,0.1725 0,0.33178 0,0.5 0,1.10802 2.23,2.00002 5,2.00002 2.77,0 5,-0.892 5,-2.00002 -0.07,-0.17307 0,-0.33137 0,-0.5 0,-1.108 -2.23,-2 -5,-2 z m -5,4.00002 0,2.5 c 0,1.108 2.23,2 5,2 2.77,0 5,-0.892 5,-2 l 0,-2.5 c 0,1.108 -2.23,2 -5,2 -2.77,0 -5,-0.892 -5,-2 z m 0,4 0,2 c 0,1.108 2.23,2 5,2 2.77,0 5,-0.892 5,-2 l 0,-2 c 0,1.108 -2.23,2 -5,2 -2.77,0 -5,-0.892 -5,-2 z"
       id="path4745"
       inkscape:connector-curvature="0"
       sodipodi:nodetypes="sccsccscssscsccssscsc"
       transform="translate(0,932.36218)" />
    <path
       style="color:#000000;fill:#ffffff;fill-opacity:1;fill-rule:nonzero;stroke:none;stroke-width:1;marker:none;visibility:visible;display:inline;overflow:visible;enable-background:accumulate"
       d="m 16.21875,89.468754 -3.4375,2 1,3.5 c -0.52387,0.646099 -0.94643,1.366554 -1.25,2.15625 L 9,98.000004 9,102 l 3.53125,0.875 c 0.30357,0.7897 0.72613,1.51015 1.25,2.15625 l -1,3.5 3.4375,2 2.53125,-2.625 C 19.1567,107.96997 19.57541,108 20,108 c 0.42459,0 0.8433,-0.03 1.25,-0.0937 l 2.53125,2.625 3.4375,-2 -1,-3.5 c 0.52387,-0.6461 0.94643,-1.36655 1.25,-2.15625 L 31,102 l 0,-3.999996 -3.53125,-0.875 c -0.30357,-0.789696 -0.72613,-1.510151 -1.25,-2.15625 l 1,-3.5 -3.4375,-2 -2.53125,2.625 c -0.4067,-0.06372 -0.82541,-0.09375 -1.25,-0.09375 -0.42459,0 -0.8433,0.03003 -1.25,0.09375 l -2.53125,-2.625 z M 20,97.000004 c 1.65685,0 3,1.343146 3,2.999996 0,1.65686 -1.34315,3 -3,3 -1.65685,0 -3,-1.34314 -3,-3 0,-1.65685 1.34315,-2.999996 3,-2.999996 z"
       id="path3282-3"
       inkscape:connector-curvature="0"
       transform="translate(0,932.36218)" />
    <path
       style="color:#000000;fill:#ffffff;fill-opacity:1;fill-rule:nonzero;stroke:none;stroke-width:1;marker:none;visibility:visible;display:inline;overflow:visible;enable-background:accumulate"
       d="m 7.375,63.437504 -1.75,1 0.5,2.4375 c -0.32773,0.404164 -0.59147,0.849685 -0.78125,1.34375 L 3,69.000004 l 0,2 2.34375,0.78125 c 0.18978,0.494065 0.45352,0.939586 0.78125,1.34375 l -0.5,2.4375 1.75,1 1.8125,-1.625 c 0.26757,0.04428 0.53237,0.0625 0.8125,0.0625 0.28013,0 0.54493,-0.01822 0.8125,-0.0625 l 1.8125,1.625 1.75,-1 -0.5,-2.4375 c 0.32773,-0.404164 0.59147,-0.849685 0.78125,-1.34375 L 17,71.000004 l 0,-2 -2.34375,-0.78125 C 14.46647,67.724689 14.20273,67.279168 13.875,66.875004 l 0.5,-2.4375 -1.75,-1 -1.8125,1.625 c -0.26757,-0.04428 -0.53237,-0.0625 -0.8125,-0.0625 -0.28013,0 -0.54493,0.01822 -0.8125,0.0625 l -1.8125,-1.625 z m 2.625,4.5625 c 1.10457,0 2,0.89543 2,2 0,1.104569 -0.89543,2 -2,2 -1.10457,0 -2,-0.895431 -2,-2 0,-1.10457 0.89543,-2 2,-2 z"
       id="path3282-7-4"
       inkscape:connector-curvature="0"
       transform="translate(0,932.36218)" />
    <path
       style="color:#000000;fill:#ffffff;fill-opacity:1;fill-rule:nonzero;stroke:none;stroke-width:2;marker:none;visibility:visible;display:inline;overflow:visible;enable-background:accumulate"
       d="m 96,87 c -4.986,0 -9,1.62495 -9,3.65625 0,1.607992 2.541087,2.935072 6.0625,3.4375 C 93.035654,93.94716 93,93.811071 93,93.65625 93,92.81908 93.4141,92.06496 94,91.5 94.5859,90.93504 95.354,90.4886 96.25,90.125 98.042,89.3978 100.3984,89 103,89 c 0.36248,0 0.71041,0.01599 1.0625,0.03125 C 102.59865,87.8205 99.55559,87 96,87 z m 8,4 c -4.986,0 -9,1.62495 -9,3.65625 0,2.0314 4.014,3.6875 9,3.6875 4.986,0 9,-1.6561 9,-3.6875 C 113,92.62495 108.986,91 104,91 z m -16.65625,3.34375 c -0.2178,0.3163 -0.34375,0.6542 -0.34375,1 l 0,2 c 0,1.603288 2.525749,2.90845 6.03125,3.40625 C 93.008362,100.61409 93,100.48653 93,100.34375 l 0,-2 c 0,-0.557543 0.188794,-1.100826 0.46875,-1.53125 -2.954981,-0.351272 -5.288285,-1.258905 -6.125,-2.46875 z m 8,4 c -0.2178,0.3163 -0.34375,0.6542 -0.34375,1 l 0,2 c 0,2.0313 4.014,3.65625 9,3.65625 4.986,0 9,-1.62495 9,-3.65625 l 0,-2 c 0,-0.3458 -0.12595,-0.6837 -0.34375,-1 C 111.59075,99.88455 108.1318,101 104,101 c -4.1318,0 -7.59065,-1.11545 -8.65625,-2.65625 z m -8,3 c -0.2178,0.3163 -0.34375,0.6542 -0.34375,1 l 0,2 c 0,1.60329 2.525749,2.90845 6.03125,3.40625 C 93.008362,107.61409 93,107.48653 93,107.34375 l 0,-2 c 0,-0.55754 0.188794,-1.10083 0.46875,-1.53125 -2.954981,-0.35127 -5.288285,-1.2589 -6.125,-2.46875 z m 8,4 c -0.2178,0.3163 -0.34375,0.6542 -0.34375,1 l 0,2 c 0,2.0313 4.014,3.65625 9,3.65625 4.986,0 9,-1.62495 9,-3.65625 l 0,-2 c 0,-0.3458 -0.12595,-0.6837 -0.34375,-1 C 111.59075,106.88455 108.1318,108 104,108 c -4.1318,0 -7.59065,-1.11545 -8.65625,-2.65625 z"
       id="path4508"
       inkscape:connector-curvature="0"
       transform="translate(0,932.36218)" />
    <path
       style="color:#000000;fill:#ffffff;fill-opacity:1;fill-rule:nonzero;stroke:none;stroke-width:1;marker:none;visibility:visible;display:inline;overflow:visible;enable-background:accumulate"
       d="m 133.2188,95.00002 7,10 7,-10 -14,0 z"
       id="path9651"
       inkscape:connector-curvature="0"
       transform="translate(0,932.36218)" />
    <path
       sodipodi:nodetypes="ccc"
       inkscape:connector-curvature="0"
       id="path6002-8"
       d="m 124,68.00002 5.5,5.5 5.5,-5.5"
       style="color:#000000;fill:#ffffff;fill-opacity:1;fill-rule:nonzero;stroke:none;stroke-width:1;marker:none;visibility:visible;display:inline;overflow:visible;enable-background:accumulate"
       transform="translate(0,932.36218)" />
    <path
       inkscape:connector-curvature="0"
       id="path3906"
       d="m 170,63.000004 c -3.866,0 -7,3.134 -7,7.00002 0,3.866 3.134,7 7,7 3.8659,0 7,-3.134 7,-7 0,-3.86602 -3.1341,-7.00002 -7,-7.00002 z m -0.5,3 1,0 c 0.277,0 0.5,0.223 0.5,0.5 l 0,1 c 0,0.27702 -0.223,0.50002 -0.5,0.50002 l -1,0 c -0.277,0 -0.5,-0.223 -0.5,-0.50002 l 0,-1 c 0,-0.277 0.223,-0.5 0.5,-0.5 z m 0,3.00002 1,0 c 0.277,0 0.5,0.223 0.5,0.5 l 0,4 c 0,0.277 -0.223,0.5 -0.5,0.5 l -1,0 c -0.277,0 -0.5,-0.223 -0.5,-0.5 l 0,-4 c 0,-0.277 0.223,-0.5 0.5,-0.5 z"
       style="color:#000000;fill:#ffffff;fill-opacity:1;fill-rule:nonzero;stroke:none;stroke-width:1;marker:none;visibility:visible;display:inline;overflow:visible;enable-background:accumulate"
       transform="translate(0,932.36218)" />
    <path
       style="color:#000000;fill:#ffffff;fill-opacity:1;fill-rule:nonzero;stroke:none;stroke-width:1;marker:none;visibility:visible;display:inline;overflow:visible;enable-background:accumulate"
       d="m 180,86.000024 c -7.732,0 -14,6.268 -14,13.999996 0,7.732 6.268,14 14,14 7.7318,0 14,-6.268 14,-14 0,-7.731996 -6.2682,-13.999996 -14,-13.999996 z m -1,6 2,0 c 0.554,0 1,0.446 1,1 l 0,2 c 0,0.554 -0.446,1 -1,1 l -2,0 c -0.554,0 -1,-0.446 -1,-1 l 0,-2 c 0,-0.554 0.446,-1 1,-1 z m 0,6 2,0 c 0.554,0 1,0.446 1,1 l 0,7.999996 c 0,0.554 -0.446,1 -1,1 l -2,0 c -0.554,0 -1,-0.446 -1,-1 l 0,-7.999996 c 0,-0.554 0.446,-1 1,-1 z"
       id="path8340"
       inkscape:connector-curvature="0"
       sodipodi:nodetypes="sssssssssssssssssssssss"
       transform="translate(0,932.36218)" />
    <path
       inkscape:connector-curvature="0"
       id="path33214"
       d="m 60,29.000024 c -4.986,0 -9,1.6249 -9,3.6562 0,2.0314 4.014,3.6875 9,3.6875 4.986,0 9,-1.6561 9,-3.6875 0,-2.0313 -4.014,-3.6562 -9,-3.6562 z m -8.6562,7.3437 c -0.2178,0.3163 -0.3438,0.6542 -0.3438,1 l 0,2 c 0,2.031296 4.014,3.656296 9,3.656296 4.986,0 9,-1.625 9,-3.656296 l 0,-2 c 0,-0.3458 -0.126,-0.6837 -0.3438,-1 -1.0655,1.5408 -4.5244,2.6563 -8.6562,2.6563 -4.1318,0 -7.5906,-1.1155 -8.6562,-2.6563 z m 0,6.999996 c -0.2178,0.3163 -0.3438,0.6542 -0.3438,1 l 0,2 c 0,2.0313 4.014,3.6563 9,3.6563 4.986,0 9,-1.625 9,-3.6563 l 0,-2 c 0,-0.3458 -0.126,-0.6837 -0.3438,-1 -1.0655,1.5408 -4.5244,2.6563 -8.6562,2.6563 -4.1318,0 -7.5906,-1.1155 -8.6562,-2.6563 z"
       style="color:#000000;fill:#444444;fill-opacity:1;fill-rule:nonzero;stroke:none;stroke-width:2;marker:none;visibility:visible;display:inline;overflow:visible;enable-background:accumulate"
       transform="translate(0,932.36218)" />
    <path
       sodipodi:nodetypes="sccsccscssscsccssscsc"
       inkscape:connector-curvature="0"
       id="path33216"
       d="m 50,4.000004 c -2.77,0 -5,0.892 -5,2 0.07,0.1725 0,0.33178 0,0.5 0,1.10802 2.23,2.00002 5,2.00002 2.77,0 5,-0.892 5,-2.00002 -0.07,-0.17307 0,-0.33137 0,-0.5 0,-1.108 -2.23,-2 -5,-2 z m -5,4.00002 0,2.5 c 0,1.108 2.23,2 5,2 2.77,0 5,-0.892 5,-2 l 0,-2.5 c 0,1.108 -2.23,2 -5,2 -2.77,0 -5,-0.892 -5,-2 z m 0,4 0,2 c 0,1.108 2.23,2 5,2 2.77,0 5,-0.892 5,-2 l 0,-2 c 0,1.108 -2.23,2 -5,2 -2.77,0 -5,-0.892 -5,-2 z"
       style="color:#000000;fill:#444444;fill-opacity:1;fill-rule:nonzero;stroke:none;stroke-width:2;marker:none;visibility:visible;display:inline;overflow:visible;enable-background:accumulate"
       transform="translate(0,932.36218)" />
    <path
       inkscape:connector-curvature="0"
       id="path33218"
       d="m 16.21875,29.468754 -3.4375,2 1,3.5 c -0.52387,0.646099 -0.94643,1.366554 -1.25,2.15625 L 9,38.000004 9,42 l 3.53125,0.875 c 0.30357,0.7897 0.72613,1.51015 1.25,2.15625 l -1,3.5 3.4375,2 2.53125,-2.625 C 19.1567,47.96997 19.57541,48 20,48 c 0.42459,0 0.8433,-0.03 1.25,-0.0937 l 2.53125,2.625 3.4375,-2 -1,-3.5 c 0.52387,-0.6461 0.94643,-1.36655 1.25,-2.15625 L 31,42 l 0,-3.999996 -3.53125,-0.875 c -0.30357,-0.789696 -0.72613,-1.510151 -1.25,-2.15625 l 1,-3.5 -3.4375,-2 -2.53125,2.625 c -0.4067,-0.06372 -0.82541,-0.09375 -1.25,-0.09375 -0.42459,0 -0.8433,0.03003 -1.25,0.09375 l -2.53125,-2.625 z M 20,37.000004 c 1.65685,0 3,1.343146 3,2.999996 0,1.65686 -1.34315,3 -3,3 -1.65685,0 -3,-1.34314 -3,-3 0,-1.65685 1.34315,-2.999996 3,-2.999996 z"
       style="color:#000000;fill:#444444;fill-opacity:1;fill-rule:nonzero;stroke:none;stroke-width:1;marker:none;visibility:visible;display:inline;overflow:visible;enable-background:accumulate"
       transform="translate(0,932.36218)" />
    <path
       inkscape:connector-curvature="0"
       id="path33220"
       d="m 7.375,3.437504 -1.75,1 0.5,2.4375 C 5.79727,7.279168 5.53353,7.724689 5.34375,8.218754 L 3,9.000004 l 0,2 2.34375,0.78125 c 0.18978,0.494065 0.45352,0.939586 0.78125,1.34375 l -0.5,2.4375 1.75,1 1.8125,-1.625 c 0.26757,0.04428 0.53237,0.0625 0.8125,0.0625 0.28013,0 0.54493,-0.01822 0.8125,-0.0625 l 1.8125,1.625 1.75,-1 -0.5,-2.4375 c 0.32773,-0.404164 0.59147,-0.849685 0.78125,-1.34375 L 17,11.000004 l 0,-2 -2.34375,-0.78125 C 14.46647,7.724689 14.20273,7.279168 13.875,6.875004 l 0.5,-2.4375 -1.75,-1 -1.8125,1.625 C 10.54493,5.018224 10.28013,5.000004 10,5.000004 c -0.28013,0 -0.54493,0.01822 -0.8125,0.0625 L 7.375,3.437504 z M 10,8.000004 c 1.10457,0 2,0.89543 2,2 0,1.104569 -0.89543,2 -2,2 -1.10457,0 -2,-0.895431 -2,-2 0,-1.10457 0.89543,-2 2,-2 z"
       style="color:#000000;fill:#444444;fill-opacity:1;fill-rule:nonzero;stroke:none;stroke-width:1;marker:none;visibility:visible;display:inline;overflow:visible;enable-background:accumulate"
       transform="translate(0,932.36218)" />
    <path
       inkscape:connector-curvature="0"
       id="path33222"
       d="m 96,27 c -4.986,0 -9,1.62495 -9,3.65625 0,1.607992 2.541087,2.935072 6.0625,3.4375 C 93.035654,33.94716 93,33.811071 93,33.65625 93,32.81908 93.4141,32.06496 94,31.5 94.5859,30.93504 95.354,30.4886 96.25,30.125 98.042,29.3978 100.3984,29 103,29 c 0.36248,0 0.71041,0.01599 1.0625,0.03125 C 102.59865,27.8205 99.55559,27 96,27 z m 8,4 c -4.986,0 -9,1.62495 -9,3.65625 0,2.0314 4.014,3.6875 9,3.6875 4.986,0 9,-1.6561 9,-3.6875 C 113,32.62495 108.986,31 104,31 z m -16.65625,3.34375 c -0.2178,0.3163 -0.34375,0.6542 -0.34375,1 l 0,2 C 87,38.947038 89.525749,40.2522 93.03125,40.75 93.008362,40.61409 93,40.48653 93,40.34375 l 0,-2 c 0,-0.557543 0.188794,-1.100826 0.46875,-1.53125 -2.954981,-0.351272 -5.288285,-1.258905 -6.125,-2.46875 z m 8,4 c -0.2178,0.3163 -0.34375,0.6542 -0.34375,1 l 0,2 C 95,43.37505 99.014,45 104,45 c 4.986,0 9,-1.62495 9,-3.65625 l 0,-2 c 0,-0.3458 -0.12595,-0.6837 -0.34375,-1 C 111.59075,39.88455 108.1318,41 104,41 99.8682,41 96.40935,39.88455 95.34375,38.34375 z m -8,3 c -0.2178,0.3163 -0.34375,0.6542 -0.34375,1 l 0,2 C 87,45.94704 89.525749,47.2522 93.03125,47.75 93.008362,47.61409 93,47.48653 93,47.34375 l 0,-2 c 0,-0.55754 0.188794,-1.10083 0.46875,-1.53125 -2.954981,-0.35127 -5.288285,-1.2589 -6.125,-2.46875 z m 8,4 c -0.2178,0.3163 -0.34375,0.6542 -0.34375,1 l 0,2 C 95,50.37505 99.014,52 104,52 c 4.986,0 9,-1.62495 9,-3.65625 l 0,-2 c 0,-0.3458 -0.12595,-0.6837 -0.34375,-1 C 111.59075,46.88455 108.1318,48 104,48 99.8682,48 96.40935,46.88455 95.34375,45.34375 z"
       style="color:#000000;fill:#444444;fill-opacity:1;fill-rule:nonzero;stroke:none;stroke-width:2;marker:none;visibility:visible;display:inline;overflow:visible;enable-background:accumulate"
       transform="translate(0,932.36218)" />
    <path
       inkscape:connector-curvature="0"
       id="path33224"
       d="m 133.2188,35.00002 7,10 7,-10 -14,0 z"
       style="color:#000000;fill:#444444;fill-opacity:1;fill-rule:nonzero;stroke:none;stroke-width:1;marker:none;visibility:visible;display:inline;overflow:visible;enable-background:accumulate"
       transform="translate(0,932.36218)" />
    <path
       style="color:#000000;fill:#444444;fill-opacity:1;fill-rule:nonzero;stroke:none;stroke-width:1;marker:none;visibility:visible;display:inline;overflow:visible;enable-background:accumulate"
       d="m 124,8.00002 5.5,5.5 5.5,-5.5"
       id="path33226"
       inkscape:connector-curvature="0"
       sodipodi:nodetypes="ccc"
       transform="translate(0,932.36218)" />
    <path
       style="color:#000000;fill:#444444;fill-opacity:1;fill-rule:nonzero;stroke:none;stroke-width:1;marker:none;visibility:visible;display:inline;overflow:visible;enable-background:accumulate"
       d="m 170,3.000004 c -3.866,0 -7,3.134 -7,7.00002 0,3.866 3.134,7 7,7 3.8659,0 7,-3.134 7,-7 0,-3.86602 -3.1341,-7.00002 -7,-7.00002 z m -0.5,3 1,0 c 0.277,0 0.5,0.223 0.5,0.5 l 0,1 c 0,0.27702 -0.223,0.50002 -0.5,0.50002 l -1,0 c -0.277,0 -0.5,-0.223 -0.5,-0.50002 l 0,-1 c 0,-0.277 0.223,-0.5 0.5,-0.5 z m 0,3.00002 1,0 c 0.277,0 0.5,0.223 0.5,0.5 l 0,4 c 0,0.277 -0.223,0.5 -0.5,0.5 l -1,0 c -0.277,0 -0.5,-0.223 -0.5,-0.5 l 0,-4 c 0,-0.277 0.223,-0.5 0.5,-0.5 z"
       id="path33228"
       inkscape:connector-curvature="0"
       transform="translate(0,932.36218)" />
    <path
       sodipodi:nodetypes="sssssssssssssssssssssss"
       inkscape:connector-curvature="0"
       id="path33230"
       d="m 180,26.000024 c -7.732,0 -14,6.268 -14,13.999996 0,7.732 6.268,14 14,14 7.7318,0 14,-6.268 14,-14 0,-7.731996 -6.2682,-13.999996 -14,-13.999996 z m -1,6 2,0 c 0.554,0 1,0.446 1,1 l 0,2 c 0,0.554 -0.446,1 -1,1 l -2,0 c -0.554,0 -1,-0.446 -1,-1 l 0,-2 c 0,-0.554 0.446,-1 1,-1 z m 0,6 2,0 c 0.554,0 1,0.446 1,1 l 0,7.999996 c 0,0.554 -0.446,1 -1,1 l -2,0 c -0.554,0 -1,-0.446 -1,-1 l 0,-7.999996 c 0,-0.554 0.446,-1 1,-1 z"
       style="color:#000000;fill:#444444;fill-opacity:1;fill-rule:nonzero;stroke:none;stroke-width:1;marker:none;visibility:visible;display:inline;overflow:visible;enable-background:accumulate"
       transform="translate(0,932.36218)" />
    <path
       transform="translate(0,972.36218)"
       sodipodi:nodetypes="ccccccccccccc"
       inkscape:connector-curvature="0"
       id="path4332"
       d="M 453,-4.5 457.5,0 453,4.5 455.5,7 460,2.5 464.5,7 467,4.5 462.5,0 467,-4.5 464.5,-7 460,-2.5 455.5,-7 z"
       style="font-size:medium;font-style:normal;font-variant:normal;font-weight:normal;font-stretch:normal;text-indent:0;text-align:start;text-decoration:none;line-height:normal;letter-spacing:normal;word-spacing:normal;text-transform:none;direction:ltr;block-progression:tb;writing-mode:lr-tb;text-anchor:start;baseline-shift:baseline;color:#000000;fill:#444444;fill-opacity:1;fill-rule:nonzero;stroke:none;stroke-width:1;marker:none;visibility:visible;display:inline;overflow:visible;enable-background:accumulate;font-family:Sans;-inkscape-font-specification:Sans" />
    <path
       sodipodi:nodetypes="ccccccccccccc"
       inkscape:connector-curvature="0"
       id="path5896"
       d="m 446.5,937.36216 -1.5,1.5 3.5,3.50002 -3.5,3.5 1.5,1.5 3.5,-3.5 3.5,3.5 1.5,-1.5 -3.5,-3.5 3.5,-3.50002 -1.5,-1.5 -3.5,3.50002 z"
       style="color:#000000;fill:#444444;fill-opacity:1;fill-rule:nonzero;stroke:none;stroke-width:1;marker:none;visibility:visible;display:inline;overflow:visible;enable-background:accumulate" />
    <path
       transform="translate(0,972.36218)"
       style="font-size:medium;font-style:normal;font-variant:normal;font-weight:normal;font-stretch:normal;text-indent:0;text-align:start;text-decoration:none;line-height:normal;letter-spacing:normal;word-spacing:normal;text-transform:none;direction:ltr;block-progression:tb;writing-mode:lr-tb;text-anchor:start;baseline-shift:baseline;color:#000000;fill:#ffffff;fill-opacity:1;fill-rule:nonzero;stroke:none;stroke-width:1;marker:none;visibility:visible;display:inline;overflow:visible;enable-background:accumulate;font-family:Sans;-inkscape-font-specification:Sans"
       d="m 453,55.5 4.5,4.5 -4.5,4.5 2.5,2.5 4.5,-4.5 4.5,4.5 L 467,64.5 462.5,60 467,55.5 464.5,53 460,57.5 455.5,53 z"
       id="path34254"
       inkscape:connector-curvature="0"
       sodipodi:nodetypes="ccccccccccccc" />
    <path
       transform="translate(0,972.36218)"
       style="color:#000000;fill:#ffffff;fill-opacity:1;fill-rule:nonzero;stroke:none;stroke-width:1;marker:none;visibility:visible;display:inline;overflow:visible;enable-background:accumulate"
       d="m 446.5,24.99998 -1.5,1.5 3.5,3.50002 -3.5,3.5 1.5,1.5 3.5,-3.5 3.5,3.5 1.5,-1.5 -3.5,-3.5 3.5,-3.50002 -1.5,-1.5 L 450,28.5 z"
       id="path34256"
       inkscape:connector-curvature="0"
       sodipodi:nodetypes="ccccccccccccc" />
    <path
       style="color:#000000;fill:#404040;fill-opacity:1;fill-rule:nonzero;stroke:none;stroke-width:1;marker:none;visibility:visible;display:inline;overflow:visible;enable-background:accumulate"
       d="m 484,8 11,0 0,-1 -1,-1 -4,0 -1,-1 -3,0 -2,2 z m 1,1 -1,0 0,6 1,1 10,0 1,-1 0,-5 -1,-1 z"
       id="path11770"
       inkscape:connector-curvature="0"
       sodipodi:nodetypes="cccccccccccccccccc"
       inkscape:export-filename="/Users/tristen/Dropbox (MapBox)/dg-hootenanny/wires/00-Importing/01.png"
       inkscape:export-xdpi="90"
       inkscape:export-ydpi="90"
       transform="translate(0,932.36218)" />
    <path
       style="color:#000000;fill:#404040;fill-opacity:1;fill-rule:nonzero;stroke:none;stroke-width:1;marker:none;visibility:visible;display:inline;overflow:visible;enable-background:accumulate"
       d="m 530,935.36218 -7,7 5,0 0,6 c 0,1.108 0.892,2 2,2 1.108,0 2,-0.892 2,-2 l 0,-6 5,0 z"
       id="rect44625"
       inkscape:connector-curvature="0"
       sodipodi:nodetypes="cccsssccc" />
    <path
       inkscape:export-ydpi="90"
       inkscape:export-xdpi="90"
       inkscape:export-filename="/Users/tristen/Dropbox (MapBox)/dg-hootenanny/wires/00-Importing/01.png"
       sodipodi:nodetypes="cccccccccccccccccc"
       inkscape:connector-curvature="0"
       id="path14025"
       d="m 484,68 11,0 0,-1 -1,-1 -4,0 -1,-1 -3,0 -2,2 z m 1,1 -1,0 0,6 1,1 10,0 1,-1 0,-5 -1,-1 z"
       style="color:#000000;fill:#ffffff;fill-opacity:1;fill-rule:nonzero;stroke:none;stroke-width:1;marker:none;visibility:visible;display:inline;overflow:visible;enable-background:accumulate"
       transform="translate(0,932.36218)" />
    <path
       inkscape:connector-curvature="0"
       id="path14027"
       d="m 530,995.36218 -7,7.00002 5,0 0,6 c 0,1.108 0.892,2 2,2 1.108,0 2,-0.892 2,-2 l 0,-6 5,0 z"
       style="color:#000000;fill:#ffffff;fill-opacity:1;fill-rule:nonzero;stroke:none;stroke-width:1;marker:none;visibility:visible;display:inline;overflow:visible;enable-background:accumulate"
       sodipodi:nodetypes="cccsssccc" />
    <path
       inkscape:export-ydpi="180"
       inkscape:export-xdpi="180"
       sodipodi:nodetypes="ccccccc"
       inkscape:connector-curvature="0"
       id="path14033"
       d="m 375,996.3622 -7,7 -3,-3 -2,2 5,5 9,-9 z"
       style="font-size:medium;font-style:normal;font-variant:normal;font-weight:normal;font-stretch:normal;text-indent:0;text-align:start;text-decoration:none;line-height:normal;letter-spacing:normal;word-spacing:normal;text-transform:none;direction:ltr;block-progression:tb;writing-mode:lr-tb;text-anchor:start;baseline-shift:baseline;color:#000000;fill:#ffffff;fill-opacity:1;fill-rule:nonzero;stroke:none;stroke-width:1;marker:none;visibility:visible;display:inline;overflow:visible;enable-background:accumulate;font-family:Sans;-inkscape-font-specification:Sans" />
    <path
       style="color:#000000;fill:#404040;fill-opacity:1;fill-rule:nonzero;stroke:none;stroke-width:1;marker:none;visibility:visible;display:inline;overflow:visible;enable-background:accumulate"
       d="M 564 5 L 564 15 L 565 16 L 574 16 L 575 15 L 575 6 L 574 5 L 565 5 L 564 5 z M 566 7 L 573 7 L 573 9 L 566 9 L 566 7 z M 566 11 L 573 11 L 573 12 L 566 12 L 566 11 z M 566 13 L 573 13 L 573 14 L 566 14 L 566 13 z "
       transform="translate(0,932.36218)"
       id="path6773" />
    <path
       style="color:#000000;fill:#404040;fill-opacity:1;fill-rule:nonzero;stroke:none;stroke-width:1;marker:none;visibility:visible;display:inline;overflow:visible;enable-background:accumulate"
       d="m 571,963.36218 0,17 1,1 16,0 1,-1 0,-13 -4,-4 -13,0 z m 2,3 12,0 0,2 -12,0 z m 1,5 12,0 0,7 -12,0 z m 1,1 0,2 10,0 0,-2 z m 0,3 0,2 10,0 0,-2 z"
       id="path6781"
       inkscape:connector-curvature="0"
       sodipodi:nodetypes="ccccccccccccccccccccccccccccc" />
    <path
       id="path6817"
       d="m 564,997.3622 0,10 1,1 9,0 1,-1 0,-9 -1,-1 -9,0 -1,0 z m 2,2 7,0 0,2 -7,0 0,-2 z m 0,4 7,0 0,1 -7,0 0,-1 z m 0,2 7,0 0,1 -7,0 0,-1 z"
       style="color:#000000;fill:#ffffff;fill-opacity:1;fill-rule:nonzero;stroke:none;stroke-width:1;marker:none;visibility:visible;display:inline;overflow:visible;enable-background:accumulate"
       inkscape:connector-curvature="0" />
    <path
       sodipodi:nodetypes="ccccccccccccccccccccccccccccc"
       inkscape:connector-curvature="0"
       id="path6821"
       d="m 571,1023.3622 0,17 1,1 16,0 1,-1 0,-13 -4,-4 -13,0 z m 2,3 12,0 0,2 -12,0 z m 1,5 12,0 0,7 -12,0 z m 1,1 0,2 10,0 0,-2 z m 0,3 0,2 10,0 0,-2 z"
       style="color:#000000;fill:#ffffff;fill-opacity:1;fill-rule:nonzero;stroke:none;stroke-width:1;marker:none;visibility:visible;display:inline;overflow:visible;enable-background:accumulate" />
  </g>
</svg>
